<?xml version="1.0" standalone="no"?>
<!DOCTYPE svg PUBLIC "-//W3C//DTD SVG 20010904//EN"
 "http://www.w3.org/TR/2001/REC-SVG-20010904/DTD/svg10.dtd">
<svg version="1.0" xmlns="http://www.w3.org/2000/svg"
 width="700.000000pt" height="700.000000pt" viewBox="0 0 700.000000 700.000000"
 preserveAspectRatio="xMidYMid meet">
<metadata>
Created by potrace 1.11, written by Peter Selinger 2001-2013
</metadata>
<g transform="translate(0.000000,700.000000) scale(0.100000,-0.100000)"
fill="#000000" stroke="none">
<path d="M1520 6338 c-327 -31 -599 -210 -751 -493 -93 -173 -128 -376 -103
-600 3 -33 7 -69 9 -80 4 -36 16 -119 25 -170 5 -27 12 -63 15 -80 18 -112 97
-444 189 -797 14 -54 24 -104 21 -110 -2 -7 -6 -47 -10 -88 -5 -69 -19 -209
-30 -305 -2 -22 -7 -67 -10 -100 -3 -33 -8 -78 -10 -100 -4 -42 -9 -86 -25
-250 -5 -55 -12 -129 -16 -165 -8 -78 -10 -95 -18 -185 -4 -38 -9 -86 -11
-105 -2 -19 -6 -64 -10 -100 -3 -36 -8 -85 -11 -110 -10 -98 -14 -137 -19
-195 -7 -80 -14 -150 -20 -205 -3 -25 -8 -70 -11 -100 -3 -30 -7 -73 -9 -95
-2 -22 -6 -69 -10 -105 -3 -36 -8 -81 -10 -100 -3 -19 -7 -62 -10 -95 -5 -59
-12 -131 -20 -190 -45 -337 164 -643 498 -727 63 -15 100 -19 157 -14 103 7
116 10 185 36 146 56 278 162 436 350 25 30 127 150 225 266 98 116 199 235
224 264 25 30 63 75 85 100 22 26 58 68 80 94 22 27 45 53 50 60 6 6 60 70
120 141 142 169 153 180 200 234 220 251 444 359 667 319 203 -36 353 -152
623 -482 22 -27 45 -54 50 -60 6 -6 110 -128 230 -271 121 -143 222 -262 225
-265 3 -3 64 -74 135 -159 298 -353 345 -406 435 -482 206 -175 451 -208 689
-92 78 37 109 59 170 122 149 150 213 344 187 561 -6 43 -13 114 -21 200 -3
36 -8 79 -10 95 -2 17 -7 62 -10 100 -3 39 -8 85 -11 103 -2 19 -6 66 -9 105
-3 40 -8 83 -10 97 -3 14 -7 57 -10 95 -3 39 -8 81 -10 95 -2 14 -7 61 -10
105 -4 44 -8 87 -10 96 -2 8 -6 55 -10 105 -4 49 -9 96 -10 105 -2 8 -6 49
-10 90 -3 41 -8 85 -10 99 -2 14 -6 59 -10 100 -3 41 -8 91 -10 110 -3 19 -7
60 -10 90 -3 30 -7 76 -10 103 -3 26 -7 71 -10 100 -3 28 -7 72 -10 97 -12
118 -14 139 -20 200 -3 36 -8 83 -11 105 -3 22 -7 67 -9 100 -3 33 -7 70 -10
83 -2 12 21 120 51 240 31 119 57 224 59 232 2 8 16 65 30 125 15 61 28 119
31 130 2 11 8 43 14 70 54 262 82 470 82 605 0 80 -11 186 -23 217 -5 13 -6
23 -4 23 10 0 -56 165 -91 228 -147 268 -428 452 -730 478 -108 9 -99 9 -193
1 -173 -16 -494 -95 -896 -222 -317 -100 -346 -107 -663 -154 -69 -11 -399
-11 -477 -1 -33 5 -80 11 -105 14 -138 16 -302 57 -570 143 -80 26 -149 48
-155 49 -5 1 -41 11 -80 22 -325 96 -497 133 -725 156 -14 1 -63 -2 -110 -6z"/>
</g>
</svg>
